<?xml version="1.0" standalone="no"?><!DOCTYPE svg PUBLIC "-//W3C//DTD SVG 1.1//EN" "http://www.w3.org/Graphics/SVG/1.1/DTD/svg11.dtd"><svg t="1599207765126" class="icon" viewBox="0 0 1024 1024" version="1.1" xmlns="http://www.w3.org/2000/svg" p-id="1805" xmlns:xlink="http://www.w3.org/1999/xlink" width="200" height="200"><defs><style type="text/css"></style></defs><path d="M883.866403 790.900058c10.268878 0 18.593474-8.324596 18.593474-18.593474s-8.324596-18.593474-18.593474-18.593474L305.334103 753.713111c-11.994172 0-21.751397-10.482749-21.751397-23.369244 0-0.604774-0.029676-1.209548-0.088004-1.811252-0.345877-3.539616-2.003634-20.450774-4.583388-46.381353l530.699897-42.10598c36.033681-0.391926 65.219397-28.894074 65.219397-63.874773L874.830609 350.670661c0-35.08917-29.370935-63.660902-65.559135-63.87682l-573.532425-22.203698c-0.381693-0.016373-0.7552 0.002047-1.131777 0.00921-6.381337-53.661154-11.835559-94.101191-15.113209-107.34789-4.78191-19.328207-15.414061-34.230616-30.746258-43.098587-27.709085-16.025998-60.606333-7.274684-64.265676-6.223748-9.870812 2.833535-15.57472 13.132088-12.741185 23.001877 2.832512 9.870812 13.132088 15.575744 23.001877 12.741185 0.206708-0.058328 21.201881-5.53404 35.388998 2.671852 6.562463 3.795443 10.902304 10.285251 13.266142 19.839861 10.060123 40.654932 45.564755 386.950959 63.009056 565.147454 0.515746 32.937157 26.753317 59.5687 58.930157 59.5687L883.866403 790.900058z" p-id="1806"></path><path d="M307.472813 828.087005c-20.50501 0-37.186947 16.681938-37.186947 37.186947s16.681938 37.186947 37.186947 37.186947 37.186947-16.681938 37.186947-37.186947S327.977823 828.087005 307.472813 828.087005z" p-id="1807"></path><path d="M865.272929 828.087005c-20.50501 0-37.186947 16.681938-37.186947 37.186947s16.681938 37.186947 37.186947 37.186947 37.186947-16.681938 37.186947-37.186947S885.777939 828.087005 865.272929 828.087005z" p-id="1808"></path></svg>